<?xml version="1.0" encoding="UTF-8"?>
<svg id="uuid-8a851732-b243-47ce-b1f6-4b774451ca5e" data-name="Capa 2" xmlns="http://www.w3.org/2000/svg" viewBox="0 0 768 609.99">
  <g id="uuid-3bf4cf49-7d62-4f44-8984-17d59810b882" data-name="Capa 2">
    <g>
      <line x1="0" y1="335.383" x2="768" y2="335.383" fill="none" stroke="#fff" stroke-miterlimit="10" stroke-width="4"/>
      <g>
        <path d="M43.618,442.526l-.206,20.335v6.983c-.137,8.695-.41,12.666-4.039,16.5-5.066,5.341-12.598,5.341-15.062,5.341-9.174,0-14.446-3.424-17.048-7.121-2.396-3.286-2.808-6.983-3.013-14.378v-5.066c-.068-10.681-.068-12.598-.342-22.389l.41-.41c4.656.068,6.23.068,12.051-.206l.342.411c-.137,6.778-.205,12.05-.205,17.596,0,3.629,0,7.258.137,10.887.137,4.313.547,6.709,1.574,8.489,1.507,2.396,4.177,3.629,6.984,3.629,2.259,0,4.518-.753,6.024-2.465,1.849-2.19,2.054-5.478,2.054-12.666,0-8.422-.342-16.843-.684-25.265l.41-.41c3.902.068,5.271.068,10.27-.206l.343.411Z" fill="#fff"/>
        <path d="M84.767,490.59c-5.478,0-6.642.068-11.16.205l-.411-.41c0-2.328.068-4.725.068-7.053,0-2.602-.068-11.981-.205-14.24-.205-2.465-.547-6.505-4.312-6.505-2.191,0-3.835,1.164-5.272,2.123.068,12.255.137,14.925.548,25.469l-.411.411c-5.478,0-6.505,0-11.434.205l-.411-.41c.068-4.382.137-8.764.137-13.146,0-11.16-.41-15.474-.958-21.431l.411-.479c5.135-.686,6.299-.891,11.57-1.986l.685.479-.137,3.766c3.149-1.849,6.778-4.039,10.954-4.039,2.465,0,6.367.548,8.49,4.107,1.711,2.808,1.78,5.957,1.849,12.529v5.341c.137,6.71.137,8.627.479,14.651l-.479.411Z" fill="#fff"/>
        <path d="M105.307,490.658c-5.547-.068-6.916,0-11.846.205l-.41-.479c.205-5.614.41-9.791.41-17.254,0-9.723-.205-12.118-.752-17.322l.41-.41,11.776-2.055.479.548c-.068,5.82-.205,11.708-.205,17.527,0,9.448.273,13.488.615,18.76l-.479.479ZM104.348,447.251c-4.861.616-6.162.753-10.817,1.574l-.479-.41c.068-1.302.068-2.671.068-3.972,0-1.643-.068-3.081-.205-5.546l.41-.479,11.16-1.37.411.411-.206,9.312-.342.479Z" fill="#fff"/>
        <path d="M132.213,490.658c-4.93-.068-6.709,0-11.159.205l-.479-.479c-1.506-5.614-2.26-8.147-11.365-35.124l.273-.547c5.203-.069,6.573-.138,11.982-.754l.479.411c.959,4.519,1.232,5.819,2.944,12.188l1.301,5.271,1.712,7.395,3.492-13.488c1.369-5.34,1.574-6.299,2.533-10.886l.479-.479,9.586-.205.342.479c-1.917,5.614-4.93,14.516-6.778,20.062-1.438,4.312-2.739,8.558-4.929,15.404l-.412.548Z" fill="#fff"/>
        <path d="M179.182,480.73l-.479,7.736-.411.548c-3.629,1.438-6.094,2.465-11.776,2.465-4.93,0-14.24-.821-18.212-10.064-1.095-2.396-1.644-5.751-1.644-8.969,0-11.845,7.121-18.896,17.87-18.896,1.575,0,3.149.137,4.86.616,2.328.548,7.601,2.19,9.996,10.27.959,3.424,1.027,6.847,1.096,10.201l-.41.479-22.115.411c.274,1.369.48,2.738,1.507,4.176,1.644,2.465,4.45,3.767,8.558,3.767,4.998,0,8.08-1.575,10.682-2.944l.479.205ZM169.391,467.996c0-1.575-.068-3.218-1.026-4.725-.753-1.232-2.122-2.396-4.382-2.396-.959,0-1.917.206-2.738.754-2.602,1.643-3.081,4.519-3.287,6.641l11.434-.273Z" fill="#fff"/>
        <path d="M206.295,465.531c-.959-.548-1.643-.959-2.807-.959-4.656,0-4.656,4.52-4.656,7.6,0,4.725.411,12.461.686,18.007l-.343.479c-5.478-.068-6.573,0-11.64.205l-.41-.41c.137-5.683.205-11.297.205-16.911,0-9.518-.205-12.598-.616-17.733l.411-.41c4.998-.754,6.299-.959,11.365-2.055l.547.548-.205,6.299c2.191-5.066,5.341-6.641,8.148-6.641.479,0,.958.068,1.438.068l.41.479-1.917,11.159-.616.274Z" fill="#fff"/>
        <path d="M230.875,468.269c3.766,1.438,9.038,3.424,9.038,10.955,0,.479,0,.958-.069,1.506-1.232,9.791-11.502,10.749-16.705,10.749-4.998,0-7.873-1.095-11.229-2.327l-.342-.616c.273-3.424.342-4.177.479-7.737l.617-.273c1.026.821,1.574,1.301,2.738,1.917,2.533,1.301,5.34,1.917,7.258,1.917,3.834,0,5.408-1.849,5.408-3.561,0-2.465-3.013-3.491-4.861-4.107l-2.602-.959c-3.218-1.232-8.9-3.423-8.9-10.749,0-2.738.959-4.793,1.848-6.025,3.561-5.135,10.271-5.408,13.625-5.408,4.451,0,7.258.821,10.476,1.711l.343.411-.686,7.463-.615.205c-1.712-1.095-4.383-2.875-8.559-2.875-4.245,0-4.793,2.259-4.793,3.081,0,1.917,1.85,2.67,4.177,3.491l3.354,1.232Z" fill="#fff"/>
        <path d="M258.193,490.658c-5.547-.068-6.916,0-11.846.205l-.41-.479c.205-5.614.41-9.791.41-17.254,0-9.723-.205-12.118-.752-17.322l.41-.41,11.776-2.055.479.548c-.068,5.82-.205,11.708-.205,17.527,0,9.448.273,13.488.615,18.76l-.479.479ZM257.234,447.251c-4.861.616-6.162.753-10.817,1.574l-.479-.41c.068-1.302.068-2.671.068-3.972,0-1.643-.068-3.081-.205-5.546l.41-.479,11.16-1.37.411.411-.206,9.312-.342.479Z" fill="#fff"/>
        <path d="M299.82,490.658c-5.135,0-6.436,0-11.16.205l-.342-.41.137-2.671c-1.643,1.438-4.176,3.697-9.037,3.697-2.26,0-5.957-.548-8.97-3.013-4.04-3.354-5.478-8.694-5.478-14.035,0-7.052,1.986-12.734,6.779-16.432,5.203-4.108,11.639-3.972,16.773-3.834.068-7.806,0-9.518-.41-15.953l.342-.41,11.297-1.78.479.41c-.274,9.038-.548,16.501-.548,34.576,0,8.969.205,13.077.479,19.238l-.342.411ZM286.195,462.176c-7.668,0-9.174,5.889-9.174,11.16,0,1.37,0,9.859,6.641,9.859,1.918,0,3.287-.821,4.656-1.644.205-8.284.273-10.064.205-19.17-.959-.137-1.574-.206-2.328-.206Z" fill="#fff"/>
        <path d="M338.709,475.322c0,6.436,0,8.147.479,14.856l-.343.479c-4.45-.068-5.956,0-10.886.205l-.411-.479v-2.533c-1.438,1.163-4.381,3.628-9.517,3.628-6.71,0-11.981-4.724-11.981-12.05,0-3.081,1.301-6.983,5.135-9.38,4.107-2.533,7.942-3.286,16.158-4.382,0-1.027-.205-2.26-.891-2.944-.89-.89-1.916-1.301-4.449-1.301-4.588,0-9.038,1.78-11.435,2.739l-.548-.274.343-7.463.411-.548c3.902-1.163,7.531-2.259,13.419-2.259,8.764,0,11.503,2.738,12.872,4.93,1.779,2.875,1.779,5.546,1.711,11.707l-.068,5.067ZM327.48,472.857c-4.656.616-10.064,1.369-10.064,5.888,0,2.876,2.055,4.177,4.52,4.177,2.259,0,4.107-.959,5.545-1.78v-8.284Z" fill="#fff"/>
        <path d="M380.338,490.658c-5.135,0-6.436,0-11.16.205l-.343-.41.138-2.671c-1.644,1.438-4.177,3.697-9.038,3.697-2.259,0-5.956-.548-8.97-3.013-4.039-3.354-5.477-8.694-5.477-14.035,0-7.052,1.985-12.734,6.778-16.432,5.203-4.108,11.64-3.972,16.774-3.834.068-7.806,0-9.518-.411-15.953l.343-.41,11.297-1.78.479.41c-.273,9.038-.547,16.501-.547,34.576,0,8.969.205,13.077.479,19.238l-.342.411ZM366.713,462.176c-7.668,0-9.175,5.889-9.175,11.16,0,1.37,0,9.859,6.642,9.859,1.917,0,3.286-.821,4.655-1.644.206-8.284.274-10.064.206-19.17-.959-.137-1.575-.206-2.328-.206Z" fill="#fff"/>
        <path d="M428.947,451.085c-.137,4.382-.205,6.504-.205,10.27,0,9.654.137,19.239.48,28.824l-.412.411c-5.682,0-7.051.068-12.117.273l-.412-.41c.549-16.979.549-21.293.48-39.231l-11.16.273-.344-.41.48-8.422.479-.41h33.891l.344.205-.48,8.559-.41.342-10.613-.273Z" fill="#fff"/>
        <path d="M476.053,480.73l-.479,7.736-.412.548c-3.627,1.438-6.092,2.465-11.775,2.465-4.93,0-14.24-.821-18.211-10.064-1.096-2.396-1.645-5.751-1.645-8.969,0-11.845,7.121-18.896,17.869-18.896,1.576,0,3.15.137,4.861.616,2.328.548,7.6,2.19,9.996,10.27.959,3.424,1.027,6.847,1.096,10.201l-.41.479-22.115.411c.273,1.369.48,2.738,1.506,4.176,1.645,2.465,4.451,3.767,8.559,3.767,4.998,0,8.08-1.575,10.682-2.944l.479.205ZM466.262,467.996c0-1.575-.068-3.218-1.025-4.725-.754-1.232-2.123-2.396-4.383-2.396-.959,0-1.916.206-2.738.754-2.602,1.643-3.082,4.519-3.287,6.641l11.434-.273ZM470.986,438.281c-2.191,3.355-5.271,8.079-7.395,11.571l-.479.273h-7.395l-.273-.41c2.053-4.725,2.602-6.094,4.176-11.435l.342-.342,10.818-.137.205.479Z" fill="#fff"/>
        <path d="M511.314,481.141l-.273,8.216-.412.411c-2.875.821-5.203,1.506-8.832,1.506-15.404,0-19.512-10.681-19.512-18.555,0-6.983,3.148-19.17,19.238-19.17,3.971,0,6.572.821,9.586,1.78l.342.41c-.547,3.629-.617,4.588-.891,8.216l-.684.206c-2.055-1.37-3.697-2.465-6.711-2.465-6.641,0-8.832,5.751-8.832,10.749,0,4.107,1.576,10.544,9.312,10.544,3.492,0,5.271-1.096,7.119-2.191l.549.343Z" fill="#fff"/>
        <path d="M550.203,490.59c-5.477,0-6.641.068-11.16.205l-.41-.41c0-2.328.068-4.725.068-7.053,0-2.602-.068-11.981-.205-14.24-.207-2.465-.549-6.505-4.314-6.505-2.191,0-3.834,1.164-5.271,2.123.068,12.255.137,14.925.547,25.469l-.41.411c-5.477,0-6.504,0-11.434.205l-.41-.41c.068-4.382.137-8.764.137-13.146,0-11.16-.412-15.474-.959-21.431l.41-.479c5.135-.686,6.299-.891,11.57-1.986l.686.479-.137,3.766c3.148-1.849,6.777-4.039,10.955-4.039,2.465,0,6.367.548,8.488,4.107,1.713,2.808,1.781,5.957,1.85,12.529v5.341c.137,6.71.137,8.627.479,14.651l-.479.411Z" fill="#fff"/>
        <path d="M570.742,490.658c-5.545-.068-6.914,0-11.844.205l-.412-.479c.205-5.614.412-9.791.412-17.254,0-9.723-.207-12.118-.754-17.322l.41-.41,11.777-2.055.479.548c-.068,5.82-.205,11.708-.205,17.527,0,9.448.273,13.488.615,18.76l-.479.479ZM569.783,447.251c-4.861.616-6.162.753-10.816,1.574l-.48-.41c.068-1.302.068-2.671.068-3.972,0-1.643-.068-3.081-.205-5.546l.41-.479,11.16-1.37.412.411-.205,9.312-.344.479Z" fill="#fff"/>
        <path d="M606.482,481.141l-.273,8.216-.412.411c-2.875.821-5.203,1.506-8.832,1.506-15.404,0-19.512-10.681-19.512-18.555,0-6.983,3.148-19.17,19.238-19.17,3.971,0,6.572.821,9.586,1.78l.342.41c-.547,3.629-.617,4.588-.891,8.216l-.684.206c-2.055-1.37-3.697-2.465-6.711-2.465-6.641,0-8.832,5.751-8.832,10.749,0,4.107,1.576,10.544,9.312,10.544,3.492,0,5.271-1.096,7.119-2.191l.549.343Z" fill="#fff"/>
        <path d="M642.701,475.322c0,6.436,0,8.147.479,14.856l-.342.479c-4.451-.068-5.957,0-10.887.205l-.41-.479v-2.533c-1.438,1.163-4.383,3.628-9.518,3.628-6.709,0-11.98-4.724-11.98-12.05,0-3.081,1.301-6.983,5.135-9.38,4.107-2.533,7.941-3.286,16.158-4.382,0-1.027-.205-2.26-.891-2.944-.891-.89-1.918-1.301-4.451-1.301-4.586,0-9.037,1.78-11.434,2.739l-.547-.274.342-7.463.41-.548c3.904-1.163,7.533-2.259,13.42-2.259,8.764,0,11.502,2.738,12.871,4.93,1.781,2.875,1.781,5.546,1.713,11.707l-.068,5.067ZM631.473,472.857c-4.656.616-10.064,1.369-10.064,5.888,0,2.876,2.053,4.177,4.518,4.177,2.26,0,4.109-.959,5.547-1.78v-8.284Z" fill="#fff"/>
        <path d="M704.664,490.658c-5.137,0-6.438,0-11.16.205l-.344-.41.137-2.671c-1.643,1.438-4.176,3.697-9.037,3.697-2.26,0-5.957-.548-8.969-3.013-4.039-3.354-5.477-8.694-5.477-14.035,0-7.052,1.984-12.734,6.777-16.432,5.203-4.108,11.639-3.972,16.775-3.834.068-7.806,0-9.518-.412-15.953l.342-.41,11.297-1.78.48.41c-.273,9.038-.549,16.501-.549,34.576,0,8.969.207,13.077.48,19.238l-.342.411ZM691.039,462.176c-7.668,0-9.176,5.889-9.176,11.16,0,1.37,0,9.859,6.643,9.859,1.916,0,3.285-.821,4.654-1.644.207-8.284.275-10.064.207-19.17-.959-.137-1.576-.206-2.328-.206Z" fill="#fff"/>
        <path d="M744.031,480.73l-.48,7.736-.41.548c-3.629,1.438-6.094,2.465-11.775,2.465-4.93,0-14.242-.821-18.213-10.064-1.096-2.396-1.643-5.751-1.643-8.969,0-11.845,7.119-18.896,17.869-18.896,1.574,0,3.15.137,4.861.616,2.328.548,7.6,2.19,9.996,10.27.959,3.424,1.027,6.847,1.096,10.201l-.412.479-22.113.411c.273,1.369.479,2.738,1.506,4.176,1.643,2.465,4.449,3.767,8.559,3.767,4.998,0,8.078-1.575,10.68-2.944l.48.205ZM734.24,467.996c0-1.575-.068-3.218-1.027-4.725-.754-1.232-2.123-2.396-4.381-2.396-.959,0-1.918.206-2.74.754-2.602,1.643-3.08,4.519-3.285,6.641l11.434-.273Z" fill="#fff"/>
        <path d="M763.613,490.658c-4.998-.068-6.848,0-11.434.205l-.412-.479c.275-6.778.412-10.887.412-18.281,0-4.039,0-8.079-.068-12.118-.137-11.092-.207-13.351-.891-21.704l.273-.41,11.707-1.849.48.479c-.273,7.395-.342,10.476-.342,16.98,0,21.635.342,28.824.684,36.697l-.41.479Z" fill="#fff"/>
        <path d="M45.809,495.725c-.068,7.668-.137,15.269-.137,22.937,0,8.216.068,14.926.137,24.853l-.342.343c-3.629,0-4.861,0-9.037.205l-.48-.342-6.093-8.9-6.847-10.065c-4.656-6.777-5.751-8.558-8.969-13.898l.41,9.175.205,8.421.686,14.994-.343.411c-3.971,0-5.409,0-9.995.205l-.344-.41c.069-6.642.206-13.352.206-20.061,0-9.175-.206-17.049-.548-27.661l.342-.41c4.998.068,5.889.068,11.298-.206l.479.343c1.711,2.738,2.738,4.245,7.873,12.05l6.23,9.106c3.492,5.203,3.834,5.751,5.82,9.105l-.274-11.297-.274-9.448-.479-9.243.342-.41c4.245.068,5.409,0,9.723-.206l.41.411Z" fill="#fff"/>
        <path d="M70.937,544.679c-9.791,0-13.146-3.697-14.926-6.367-2.533-3.697-3.218-8.147-3.218-12.529,0-12.598,6.709-18.965,18.623-18.965,1.779,0,5.34.137,8.353,1.301,9.585,3.766,9.585,14.857,9.585,17.527,0,10.27-3.902,19.033-18.417,19.033ZM75.523,515.991c-.891-1.095-2.465-2.122-4.382-2.122-2.19,0-3.971,1.232-4.998,3.081-1.369,2.396-1.369,6.778-1.369,8.764,0,6.642,1.301,8.969,2.465,10.133.821.753,2.054,1.575,3.834,1.575,5.683,0,6.437-6.23,6.437-11.845,0-3.697-.343-7.6-1.986-9.586Z" fill="#fff"/>
        <path d="M115.371,518.73c-.959-.548-1.644-.959-2.808-.959-4.655,0-4.655,4.52-4.655,7.6,0,4.725.41,12.461.685,18.007l-.343.479c-5.477-.068-6.572,0-11.639.205l-.411-.41c.138-5.683.206-11.297.206-16.911,0-9.518-.206-12.598-.617-17.733l.411-.41c4.998-.754,6.299-.959,11.365-2.055l.548.548-.205,6.299c2.191-5.066,5.34-6.641,8.147-6.641.479,0,.958.068,1.438.068l.411.479-1.918,11.159-.615.274Z" fill="#fff"/>
        <path d="M143.374,536.258l-.685,7.052-.479.479c-2.396.411-4.519.821-7.188.821-10.682,0-10.818-6.778-10.818-13.077,0-1.78.068-3.491.137-5.203l.206-10.886-4.313.137-.41-.411.615-7.326.411-.342,3.697.137-.068-8.559.274-.479c4.86-1.232,6.093-1.575,10.748-2.944l.48.411-.206,11.502h6.847l.41.411-.684,7.325-.411.411-6.162-.273-.138,9.653c-.068,2.738-.068,6.504.138,8.284.137,1.027.411,3.218,3.902,3.218,1.164,0,1.985-.273,3.149-.616l.548.274Z" fill="#fff"/>
        <path d="M177.744,533.93l-.479,7.736-.411.548c-3.629,1.438-6.094,2.465-11.776,2.465-4.93,0-14.24-.821-18.212-10.064-1.095-2.396-1.644-5.751-1.644-8.969,0-11.845,7.121-18.896,17.87-18.896,1.575,0,3.149.137,4.86.616,2.328.548,7.601,2.19,9.996,10.27.959,3.424,1.027,6.847,1.096,10.201l-.41.479-22.115.411c.274,1.369.48,2.738,1.507,4.176,1.644,2.465,4.45,3.767,8.558,3.767,4.998,0,8.08-1.575,10.682-2.944l.479.205ZM167.953,521.195c0-1.575-.068-3.218-1.026-4.725-.753-1.232-2.122-2.396-4.382-2.396-.959,0-1.917.206-2.738.754-2.602,1.643-3.081,4.519-3.287,6.641l11.434-.273Z" fill="#fff"/>
        <path d="M10.281,560.744c-.156,3.466-.26,7.552-.26,16.449,0,9.932.104,14.173.414,19.501l-.311.362c-2.275.052-3,.052-5.741.155l-.311-.362c.104-3.155.207-5.896.207-12.569,0-7.812,0-15.57-.362-23.329l.259-.414c2.276,0,3.104,0,5.741-.155l.363.362Z" fill="#fff"/>
        <path d="M41.732,592.815c-.154,1.759-.154,2.12-.258,3.879l-.363.362c-10.086,0-11.689.052-21.518.155l-.26-.362c.156-4.086.311-6.88.311-16.346,0-8.69,0-13.656-.361-19.604l.311-.362c10.189-.052,12.207-.052,21.725-.155l.311.362c-.154,1.552-.258,2.173-.361,4.035l-.311.361c-6.674-.207-8.897-.207-15.467-.259-.155,4.76-.155,6.26-.155,11.019,6.362.052,8.328,0,14.639-.104l.259.362c-.207,1.811-.207,2.327-.259,3.982l-.31.362c-6.001-.155-7.294-.155-14.329-.155-.104,6-.052,7.449,0,12.363,7.812,0,9.415,0,16.087-.259l.311.362Z" fill="#fff"/>
        <path d="M70.031,592.815c-.156,1.759-.156,2.12-.259,3.879l-.362.362c-10.087,0-11.69.052-21.519.155l-.259-.362c.155-4.086.311-6.88.311-16.346,0-8.69,0-13.656-.362-19.604l.311-.362c10.19-.052,12.208-.052,21.726-.155l.311.362c-.155,1.552-.259,2.173-.362,4.035l-.311.361c-6.673-.207-8.897-.207-15.466-.259-.156,4.76-.156,6.26-.156,11.019,6.363.052,8.328,0,14.639-.104l.26.362c-.207,1.811-.207,2.327-.26,3.982l-.31.362c-6.001-.155-7.294-.155-14.329-.155-.104,6-.051,7.449,0,12.363,7.812,0,9.415,0,16.088-.259l.311.362Z" fill="#fff"/>
        <path d="M98.328,592.815c-.154,1.759-.154,2.12-.258,3.879l-.362.362c-10.087,0-11.69.052-21.519.155l-.259-.362c.155-4.086.311-6.88.311-16.346,0-8.69,0-13.656-.362-19.604l.311-.362c10.19-.052,12.207-.052,21.726-.155l.31.362c-.154,1.552-.258,2.173-.361,4.035l-.311.361c-6.673-.207-8.896-.207-15.467-.259-.154,4.76-.154,6.26-.154,11.019,6.361.052,8.328,0,14.639-.104l.258.362c-.207,1.811-.207,2.327-.258,3.982l-.311.362c-6-.155-7.293-.155-14.328-.155-.104,6-.053,7.449,0,12.363,7.811,0,9.414,0,16.087-.259l.31.362Z" fill="#fff"/>
        <path d="M132.939,576.365c3.776,1.656,8.794,3.828,8.794,10.449,0,5.794-4.294,11.019-13.294,11.019-5.483,0-9-1.655-10.242-2.276l-.207-.362c.207-1.811.259-2.793.414-4.759l.518-.207c1.293.88,4.293,3.052,9.104,3.052,5.328,0,7.553-2.741,7.553-5.845,0-3.621-3-5.018-6.363-6.311l-2.586-1.139c-3.673-1.707-8.587-3.931-8.587-10.242,0-1.913.518-3.879,1.604-5.431,2.38-3.414,6.673-4.552,10.862-4.552,4.087,0,6.57.775,9.312,1.655l.259.413c-.207,1.966-.259,2.69-.414,4.553l-.414.206c-2.225-1.138-4.655-2.379-8.535-2.379-4.293,0-6.982,2.018-6.982,5.069,0,2.327,1.551,3.414,2.638,4.086.673.414.88.518,3.983,1.862l2.586,1.138Z" fill="#fff"/>
        <path d="M159.531,592.97c-.156,1.707-.156,2.069-.207,3.569l-.259.311c-1.087.259-1.966.466-3.88.466-1.241,0-4.5,0-6.104-2.69-.932-1.5-.932-2.741-.932-8.845l.104-11.38c-1.811,0-1.861.052-3.725.104l-.206-.311c.104-1.655.104-2.069.104-3.725l.31-.311c1.139,0,1.811.052,3.518,0-.051-1.086-.051-2.224-.051-3.311-.053-.982-.104-1.966-.156-2.948l.26-.362c2.327-.568,2.896-.724,5.275-1.448l.362.259c-.155,3.414-.207,4.086-.207,7.862,2.173-.052,2.794-.052,5.741-.155l.26.311c-.104,1.345-.156,1.914-.156,3.673l-.258.311c-2.586-.052-2.896-.104-5.639-.104l-.104,9.621c.052.621.052,3.569.052,4.293,0,3.776.466,4.966,3.052,4.966,1.086,0,1.914-.258,2.483-.465l.362.31Z" fill="#fff"/>
        <path d="M187,570.313c-.104,3.932-.156,7.604-.156,11.794,0,6.362.156,10.19.26,12.415,0,.724.051,1.448.104,2.172l-.207.311c-2.483.052-2.896.104-5.277.207l-.31-.311.052-2.173c-1.139.828-3.88,2.949-8.121,2.949-2.018,0-4.242-.466-5.896-1.759-3.311-2.69-3.311-7.087-3.363-11.122v-3.207c-.104-7.396-.104-8.225-.258-11.018l.258-.362c2.432-.052,2.896-.052,5.328-.259l.311.362-.207,11.328c0,1.396-.052,2.432,0,4.914.052,2.173.155,6.828,5.38,6.828,3.052,0,5.224-1.707,6.466-2.689.052-2.793.052-5.173.052-8.173,0-7.19-.052-8.639-.362-12.001l.311-.362c2.379-.052,2.948-.052,5.328-.207l.311.362Z" fill="#fff"/>
        <path d="M211.885,556.864c2.637-.465,3.154-.568,5.482-1.086l.362.311c-.362,7.189-.414,20.019-.414,25.191,0,8.018.207,11.845.414,15.414l-.259.362c-2.275,0-2.896.052-5.276.155l-.362-.311.104-1.914c-1.241.932-3.361,2.587-7.139,2.587-6.879,0-11.639-5.432-11.639-13.294,0-5.639,2.38-9.208,4.553-11.122,3.775-3.414,8.689-3.568,11.38-3.568,1.087,0,1.604,0,3,.104.052-6.415-.206-9.519-.466-12.519l.26-.311ZM211.936,573.883c-.879-.052-1.5-.155-2.586-.155-1.604,0-5.018.104-7.5,2.432-1.139,1.086-3.001,3.517-3.001,8.121,0,2.948.827,5.069,1.914,6.362.931,1.086,2.638,2.327,5.328,2.327,3.155,0,5.069-1.655,5.794-2.275.104-6.776.104-8.328.051-16.812Z" fill="#fff"/>
        <path d="M246.441,590.746c-.258,2.069-.311,2.586-.414,4.604l-.31.362c-.88.466-3.673,1.966-8.276,1.966-8.483,0-13.812-4.862-13.812-13.863,0-9.621,5.794-14.328,12.569-14.328,4.087,0,6.932,1.707,8.484,3.568,2.947,3.518,2.844,8.639,2.793,10.915l-.362.311c-8.069-.052-9.466-.052-17.949,0,.052,1.811.206,4.345,1.966,6.466,2.121,2.534,5.068,2.793,6.672,2.793,1.5,0,3.053-.259,4.501-.775,1.913-.776,3.052-1.707,3.724-2.276l.414.259ZM241.631,577.245c-1.034-2.845-3.311-4.035-5.639-4.035-2.896,0-6.311,1.966-6.827,7.139,6.259.052,8.225,0,12.983-.052-.052-.724-.104-1.862-.518-3.052Z" fill="#fff"/>
        <path d="M276.188,597.005c-2.483.052-2.794.052-5.173.207l-.361-.362c0-.569.051-1.138.051-1.707.053-2.534.053-5.069.053-7.604,0-7.966-.053-8.483-.311-9.569-.983-3.932-3.932-3.932-4.656-3.932-3.104,0-5.482,1.811-6.879,2.896-.053,9.001.051,13.708.413,19.76l-.31.311c-2.535.052-2.949.052-5.432.207l-.259-.362c.052-2.896.155-5.689.155-9.518,0-8.276-.362-12.673-.621-16.139l.311-.362c2.586-.466,3.052-.569,5.482-1.035l.363.362-.053,2.69c1.346-.932,4.553-3.207,9.104-3.207,1.293,0,2.896.206,4.294.982,1.344.776,2.431,1.966,3,3.362.672,1.552.724,3.104.775,6.311v6.052c.155,6.053.207,8.38.362,10.346l-.311.311Z" fill="#fff"/>
        <path d="M295.538,592.97c-.155,1.707-.155,2.069-.206,3.569l-.26.311c-1.086.259-1.965.466-3.879.466-1.242,0-4.5,0-6.104-2.69-.932-1.5-.932-2.741-.932-8.845l.104-11.38c-1.811,0-1.862.052-3.725.104l-.207-.311c.104-1.655.104-2.069.104-3.725l.311-.311c1.139,0,1.811.052,3.518,0-.052-1.086-.052-2.224-.052-3.311-.052-.982-.104-1.966-.155-2.948l.259-.362c2.327-.568,2.896-.724,5.276-1.448l.361.259c-.154,3.414-.207,4.086-.207,7.862,2.174-.052,2.794-.052,5.742-.155l.259.311c-.104,1.345-.155,1.914-.155,3.673l-.258.311c-2.587-.052-2.897-.104-5.639-.104l-.104,9.621c.051.621.051,3.569.051,4.293,0,3.776.467,4.966,3.053,4.966,1.086,0,1.914-.258,2.482-.465l.362.31Z" fill="#fff"/>
        <path d="M316.129,597.212l-.259-.362c.104-2.482.155-4.862.155-9.569,0-2.225.052-13.035.052-15.467,0-5.431-.155-8.225-.362-10.914l.259-.362,6.932-.104c1.034-.052,2.638-.052,4.034-.052,3.053,0,6.311.104,8.897,1.604,1.914,1.087,4.087,3.259,4.087,7.087,0,1.811-.518,6.983-7.708,8.742,1.19.052,2.897.104,4.759.931,4.449,1.966,4.914,5.897,4.914,7.811,0,4.759-2.948,8.121-7.086,9.622-2.742.982-5.483.982-9.57.982l-9.104.052ZM321.715,576.159c4.656.052,8.225,0,10.398-1.707,1.293-1.087,2.12-2.794,2.12-4.501,0-1.396-.569-2.741-1.448-3.672-1.811-1.759-5.018-1.759-6.207-1.759-1.656,0-3.26.052-4.863.155v11.483ZM321.715,580.504c0,5.896,0,6.776.207,12.414h.983c3.88,0,7.034.052,9.052-.775,2.483-.931,3.88-3.104,3.88-5.69,0-6.052-6.673-6.104-9.155-6.104-.466,0-.932,0-3.725.104l-1.242.052Z" fill="#fff"/>
        <path d="M360.153,575.538c-.517-.207-1.19-.466-2.069-.466-.982,0-1.707.362-2.172.673-2.121,1.5-2.121,3.776-2.121,9.155,0,5.846.155,8.897.361,11.794l-.258.362c-2.432,0-3,.052-5.483.155l-.259-.311c.053-3.932.104-7.5.104-12.311,0-8.276-.154-10.397-.465-13.397l.311-.362c1.965-.362,3.207-.621,5.379-1.035l.311.311-.259,4.397c.62-1.655,1.914-4.966,6.311-4.966.673,0,1.034.052,1.448.155l.207.31c-.518,2.483-.621,3.001-.982,5.276l-.362.259Z" fill="#fff"/>
        <path d="M385.346,586.4c0,6.415.053,6.983.311,10.346l-.258.259c-2.432.052-2.846.104-5.225.207l-.207-.311.052-1.862c-.983.776-3.311,2.639-7.241,2.639-5.174,0-8.794-3.518-8.794-8.639,0-6.932,5.794-9.156,15.104-10.242l.879-.104c0-1.396,0-2.379-.465-3.207-.518-.931-1.707-1.914-4.294-1.914-3.362,0-5.69,1.035-7.862,1.966l-.414-.259c.104-2.379.104-2.689.155-3.776l.31-.31c2.897-1.035,5.897-1.707,8.949-1.707,3.828,0,7.553,1.293,8.639,5.327.361,1.449.361,4.294.361,6.467v5.12ZM379.553,582.625c-5.225.775-10.086,1.5-10.086,6.104,0,.259,0,4.707,4.914,4.707,3.207,0,5.068-1.759,5.638-2.275v-8.639l-.466.104Z" fill="#fff"/>
        <path d="M415.713,597.005c-2.482.052-2.793.052-5.172.207l-.363-.362c0-.569.053-1.138.053-1.707.051-2.534.051-5.069.051-7.604,0-7.966-.051-8.483-.311-9.569-.982-3.932-3.93-3.932-4.654-3.932-3.104,0-5.482,1.811-6.881,2.896-.051,9.001.053,13.708.414,19.76l-.311.311c-2.533.052-2.947.052-5.43.207l-.26-.362c.053-2.896.156-5.689.156-9.518,0-8.276-.363-12.673-.621-16.139l.311-.362c2.586-.466,3.051-.569,5.482-1.035l.361.362-.051,2.69c1.346-.932,4.553-3.207,9.104-3.207,1.293,0,2.896.206,4.293.982,1.346.776,2.432,1.966,3,3.362.674,1.552.725,3.104.777,6.311v6.052c.154,6.053.207,8.38.361,10.346l-.311.311Z" fill="#fff"/>
        <path d="M442.668,590.901c-.207,2.224-.26,2.482-.414,4.604l-.361.362c-1.502.724-3.518,1.759-7.139,1.759-7.811,0-12.881-5.639-12.881-13.708,0-8.225,4.967-14.432,12.984-14.432,3.361,0,5.74,1.086,7.086,1.655l.207.361c-.207,1.862-.258,2.535-.361,4.087l-.414.207c-1.707-1.241-3.674-2.018-5.742-2.018-4.293,0-8.07,3.311-8.07,9.932,0,7.035,3.984,9.569,8.018,9.569,3.518,0,5.691-1.811,6.674-2.586l.414.207Z" fill="#fff"/>
        <path d="M470.086,597.005c-2.484.052-2.793.052-5.174.207l-.361-.362.051-1.707c.053-2.689.053-5.432.053-8.121l-.053-5.535c0-1.189,0-2.379-.258-3.517-.568-2.38-2.018-3.932-4.656-3.932-2.947,0-5.225,1.655-6.932,2.896-.051,9.001.053,13.708.363,19.76l-.26.311c-2.379.052-3,.052-5.533.207l-.26-.362c.104-3.673.26-8.328.26-18.26,0-4.345-.053-8.69-.104-13.035-.104-4.552-.26-6.052-.414-8.38l.258-.311c2.482-.413,3.311-.568,5.639-1.086l.311.362c-.311,5.534-.311,11.121-.311,16.708,1.654-1.087,4.914-3.207,9.26-3.207,1.189,0,2.379.154,3.465.62,2.328.932,3.725,2.793,4.242,4.914.258,1.035.258,1.655.361,5.121v6.052l.053,2.432c.104,4.345.104,5.069.311,7.914l-.311.311Z" fill="#fff"/>
      </g>
    </g>
    <g>
      <path d="M230.262,234.985c-.156,0-.316-.014-.477-.05-1.229-.263-2.013-1.472-1.751-2.699L277.125,1.805c.26-1.23,1.463-2.025,2.701-1.751,1.229.261,2.013,1.47,1.751,2.701l-49.091,230.427c-.228,1.07-1.173,1.803-2.224,1.803Z" fill="#fff"/>
      <g>
        <g>
          <path d="M334.827,58.995c-5.537-.059-6.936-.059-12.706.174l-.233-.292c0-5.245.059-10.432.117-15.62.057-3.321.116-6.644.116-9.968,0-5.128-.116-8.917-.35-15.154l.292-.292c5.713.059,6.936.059,12.649-.174l.233.292c-.174,5.828-.292,9.326-.292,16.029,0,8.218.174,16.553.409,24.713l-.235.292Z" fill="#fff"/>
          <path d="M356.268,41.976v8.044c4.546,0,8.801-.117,14.804-.35l.35.35-.583,8.625-.525.35c-7.985,0-9.326-.059-11.073-.059-6.412,0-9.735.117-15.271.233l-.292-.407c.176-6.703.233-10.316.233-18.244,0-13.988-.116-16.377-.407-22.323l.35-.35h26.228l.292.235-.407,8.042-.35.292h-13.465v7.402l12.764-.233.35.409-.466,7.635-.409.35h-12.123Z" fill="#fff"/>
          <path d="M390.236,41.976v8.044c4.546,0,8.801-.117,14.804-.35l.35.35-.583,8.625-.525.35c-7.985,0-9.326-.059-11.073-.059-6.412,0-9.735.117-15.271.233l-.292-.407c.176-6.703.233-10.316.233-18.244,0-13.988-.116-16.377-.407-22.323l.35-.35h26.228l.292.235-.407,8.042-.35.292h-13.465v7.402l12.764-.233.35.409-.466,7.635-.409.35h-12.123Z" fill="#fff"/>
          <path d="M424.203,41.976v8.044c4.548,0,8.801-.117,14.804-.35l.352.35-.583,8.625-.526.35c-7.983,0-9.324-.059-11.073-.059-6.412,0-9.735.117-15.271.233l-.292-.407c.176-6.703.233-10.316.233-18.244,0-13.988-.116-16.377-.407-22.323l.35-.35h26.229l.292.235-.409,8.042-.348.292h-13.467v7.402l12.766-.233.348.409-.466,7.635-.409.35h-12.123Z" fill="#fff"/>
        </g>
        <g>
          <path d="M336.73,92.383c-2.591-1.309-5.194-1.963-7.809-1.963-3.152,0-6.036.775-8.654,2.324s-4.673,3.657-6.168,6.328-2.242,5.635-2.242,8.892.747,6.237,2.242,8.933c1.495,2.697,3.551,4.834,6.168,6.408,2.617,1.577,5.501,2.365,8.654,2.365,2.509,0,5.058-.601,7.649-1.803s4.9-2.816,6.931-4.847l7.45,8.092c-2.992,3.097-6.502,5.553-10.535,7.37-4.033,1.814-8.079,2.724-12.137,2.724-5.501,0-10.494-1.27-14.98-3.809-4.488-2.534-8.012-6.019-10.576-10.451-2.564-4.433-3.844-9.374-3.844-14.822,0-5.393,1.307-10.28,3.924-14.66,2.617-4.379,6.209-7.823,10.775-10.334,4.566-2.511,9.626-3.766,15.181-3.766,4.059,0,8.065.841,12.018,2.523,3.951,1.684,7.317,3.967,10.094,6.851l-7.37,9.052c-1.924-2.295-4.18-4.098-6.771-5.407Z" fill="#fff"/>
          <path d="M399.655,83.13c4.593,2.511,8.213,5.967,10.855,10.375,2.644,4.406,3.967,9.306,3.967,14.699s-1.323,10.309-3.967,14.742c-2.642,4.433-6.262,7.918-10.855,10.451-4.593,2.539-9.694,3.809-15.3,3.809s-10.709-1.27-15.302-3.809c-4.594-2.534-8.211-6.006-10.855-10.412-2.644-4.406-3.965-9.333-3.965-14.781,0-5.393,1.321-10.293,3.965-14.699,2.644-4.408,6.248-7.864,10.814-10.375,4.568-2.511,9.68-3.766,15.343-3.766,5.606,0,10.707,1.255,15.3,3.766ZM375.864,92.783c-2.672,1.575-4.781,3.725-6.33,6.449s-2.322,5.716-2.322,8.972c0,3.312.786,6.33,2.363,9.054,1.574,2.724,3.684,4.886,6.328,6.488,2.644,1.602,5.514,2.404,8.613,2.404s5.94-.788,8.531-2.363c2.591-1.575,4.646-3.737,6.168-6.49,1.524-2.749,2.285-5.78,2.285-9.093,0-3.256-.761-6.248-2.285-8.972-1.522-2.724-3.577-4.874-6.168-6.449-2.591-1.575-5.435-2.363-8.531-2.363s-5.983.788-8.652,2.363Z" fill="#fff"/>
          <path d="M423.609,80.246h14.1l17.464,34.447,17.304-34.447h14.021v56.077h-11.376v-37.891l-15.942,32.203h-8.172l-16.023-32.203v37.891h-11.376v-56.077Z" fill="#fff"/>
          <path d="M540.09,85.333c3.897,3.392,5.846,8.184,5.846,14.379,0,6.516-1.963,11.577-5.889,15.182-3.926,3.604-9.441,5.407-16.543,5.407h-11.134v16.022h-12.659v-56.077h23.793c7.158,0,12.684,1.696,16.585,5.087ZM531.076,107.282c1.895-1.629,2.845-4.018,2.845-7.169,0-3.097-.949-5.434-2.845-7.011-1.895-1.574-4.634-2.363-8.211-2.363h-10.494v18.986h10.494c3.577,0,6.316-.813,8.211-2.443Z" fill="#fff"/>
          <path d="M569.929,122.664c2.272,2.324,5.302,3.485,9.093,3.485,3.688,0,6.621-1.149,8.812-3.446,2.191-2.295,3.286-5.473,3.286-9.532v-32.925h12.659v32.925c0,4.914-1.003,9.173-3.005,12.777-2.002,3.606-4.875,6.381-8.613,8.33-3.737,1.952-8.147,2.927-13.218,2.927s-9.509-.974-13.3-2.927c-3.791-1.949-6.703-4.724-8.73-8.33-2.03-3.604-3.044-7.862-3.044-12.777v-32.925h12.656v32.925c0,4.006,1.134,7.169,3.403,9.493Z" fill="#fff"/>
          <path d="M610.425,80.246h46.865v10.734h-17.144v45.343h-12.659v-45.343h-17.062v-10.734Z" fill="#fff"/>
          <path d="M664.9,80.246h42.701v10.494h-30.041v12.178h26.997v10.494h-26.997v12.418h30.923v10.494h-43.583v-56.077Z" fill="#fff"/>
          <path d="M753.662,136.323l-8.894-16.022h-12.898v16.022h-12.656v-56.077h24.352c7.318,0,12.98,1.696,16.984,5.087,4.008,3.392,6.01,8.184,6.01,14.379,0,4.326-.896,8.026-2.685,11.097-1.789,3.071-4.395,5.407-7.809,7.009l11.934,18.506h-14.338ZM731.871,109.725h11.696c3.524,0,6.234-.813,8.133-2.443,1.895-1.629,2.845-4.018,2.845-7.169,0-3.097-.949-5.434-2.845-7.011-1.899-1.574-4.609-2.363-8.133-2.363h-11.696v18.986Z" fill="#fff"/>
          <path d="M311.094,171.769c-3.232-1.038-5.995-1.561-8.291-1.561-2.191,0-3.926.402-5.208,1.202-1.282.8-1.922,1.977-1.922,3.524,0,1.977.921,3.485,2.763,4.527,1.844,1.042,4.687,2.123,8.533,3.243,3.846,1.124,7.009,2.244,9.493,3.368,2.484,1.12,4.607,2.802,6.369,5.046,1.762,2.244,2.644,5.206,2.644,8.894,0,3.577-.949,6.66-2.845,9.249-1.895,2.592-4.5,4.555-7.811,5.889-3.311,1.337-7.077,2.006-11.296,2.006-4.539,0-8.999-.804-13.378-2.404-4.379-1.604-8.172-3.794-11.376-6.572l5.048-10.334c2.829,2.564,6.088,4.619,9.772,6.17,3.686,1.55,7.05,2.322,10.096,2.322,2.615,0,4.658-.48,6.127-1.44,1.469-.964,2.203-2.351,2.203-4.168,0-1.44-.494-2.628-1.481-3.563-.989-.935-2.244-1.696-3.766-2.283s-3.618-1.255-6.289-2.002c-3.844-1.07-6.982-2.137-9.413-3.208-2.431-1.067-4.525-2.695-6.289-4.886-1.762-2.187-2.644-5.099-2.644-8.73,0-3.368.909-6.316,2.724-8.855,1.815-2.535,4.353-4.484,7.612-5.846,3.257-1.362,7.05-2.045,11.376-2.045,3.844,0,7.637.562,11.376,1.682,3.737,1.124,7.05,2.617,9.934,4.488l-4.888,10.494c-2.884-1.764-5.942-3.165-9.173-4.207Z" fill="#fff"/>
          <path d="M376.584,163.238c4.593,2.511,8.213,5.967,10.855,10.377,2.644,4.406,3.967,9.306,3.967,14.697s-1.323,10.309-3.967,14.743c-2.642,4.431-6.262,7.916-10.855,10.451-4.593,2.539-9.694,3.809-15.3,3.809s-10.709-1.27-15.302-3.809c-4.594-2.535-8.211-6.006-10.855-10.412-2.644-4.406-3.965-9.335-3.965-14.782,0-5.391,1.321-10.291,3.965-14.697,2.644-4.409,6.248-7.866,10.814-10.377,4.568-2.511,9.68-3.766,15.343-3.766,5.606,0,10.707,1.255,15.3,3.766ZM352.792,172.893c-2.672,1.575-4.781,3.723-6.33,6.447-1.549,2.724-2.322,5.718-2.322,8.972,0,3.314.786,6.33,2.363,9.054,1.574,2.724,3.684,4.886,6.328,6.49,2.644,1.6,5.514,2.404,8.613,2.404s5.94-.789,8.531-2.365c2.591-1.575,4.646-3.737,6.168-6.49,1.524-2.749,2.285-5.779,2.285-9.093,0-3.254-.761-6.248-2.285-8.972-1.522-2.724-3.577-4.872-6.168-6.447s-5.435-2.365-8.531-2.365-5.983.789-8.652,2.365Z" fill="#fff"/>
          <path d="M432.94,172.491c-2.589-1.309-5.192-1.963-7.809-1.963-3.151,0-6.035.775-8.654,2.326-2.617,1.547-4.673,3.656-6.168,6.326-1.495,2.671-2.242,5.636-2.242,8.894s.747,6.237,2.242,8.933c1.495,2.695,3.551,4.833,6.168,6.408,2.619,1.575,5.503,2.365,8.654,2.365,2.511,0,5.06-.601,7.649-1.803,2.592-1.202,4.9-2.816,6.931-4.847l7.45,8.09c-2.991,3.097-6.5,5.555-10.533,7.372-4.033,1.814-8.079,2.724-12.137,2.724-5.501,0-10.496-1.27-14.982-3.809-4.488-2.535-8.012-6.02-10.576-10.451-2.564-4.434-3.844-9.374-3.844-14.822,0-5.395,1.307-10.28,3.924-14.662,2.617-4.377,6.209-7.823,10.775-10.334,4.566-2.511,9.628-3.766,15.182-3.766,4.057,0,8.065.843,12.016,2.525s7.318,3.965,10.096,6.849l-7.372,9.054c-1.924-2.297-4.178-4.1-6.771-5.409Z" fill="#fff"/>
          <path d="M455.492,160.354h12.656v56.079h-12.656v-56.079Z" fill="#fff"/>
          <path d="M481.366,160.354h42.697v10.494h-30.041v12.179h26.997v10.494h-26.997v12.418h30.923v10.494h-43.579v-56.079Z" fill="#fff"/>
          <path d="M530.151,160.354h46.865v10.736h-17.144v45.343h-12.656v-45.343h-17.065v-10.736Z" fill="#fff"/>
          <path d="M632.053,160.354l-20.429,37.971v18.107h-12.656v-17.784l-20.749-38.295h12.738l14.341,25.155,14.018-25.155h12.738Z" fill="#fff"/>
        </g>
      </g>
      <g>
        <path d="M109.933,13.372C49.219,13.372,0,58.39,0,113.921s49.219,100.549,109.933,100.549,109.933-45.015,109.933-100.549S170.648,13.372,109.933,13.372ZM126.721,162.257c.017,13.178.946,13.638,10.142,14.244l9.486.557.412.219c2.04,1.101,2.681,3.704,2.412,5.798-.29,2.251-1.576,3.917-3.358,4.352l-.292.066-.3-.01c-7.454-.334-20.434-.53-34.722-.53-15.062,0-28.039.192-35.604.53l-.3.01-.292-.066c-1.781-.436-3.068-2.101-3.358-4.352-.269-2.094.372-4.697,2.412-5.798l.412-.219,9.502-.557c9.188-.606,10.111-1.066,10.127-14.272-36.207-4.07-58.764-21.603-58.764-46.963,0-25.541,19.455-41.9,54.089-46.503.123,3.3.221,7.732.292,12.826-2.114.54-4.134,1.139-5.94,1.847l-.898.334c-7.221,2.704-12.137,7.756-14.302,14.648l-.082.23c-1.257,3.017-1.948,8.714-1.948,16.049v.303s0,.303,0,.303c0,7.335.692,13.032,1.948,16.046l.092.268c1.672,5.317,5.021,9.53,9.76,12.408,6.814,4.537,19.833,6.878,32.75,6.878,14.134,0,28.383-2.805,34.497-8.22,3.717-2.801,6.382-6.537,7.817-11.098l.082-.237c1.257-3.014,1.948-8.711,1.948-16.046l-.002-.279.002-.328c0-7.335-.691-13.032-1.948-16.049l-.079-.223c-2.169-6.899-7.085-11.951-14.219-14.621l-.93-.348c-3.166-1.244-6.836-2.234-10.844-2.948v64.34c-4.648.861-10.138,1.401-16.324,1.401-6.49,0-12.208-.596-16.996-1.53v-14.899c.295-13.882.593-35.889.258-51.461l.003.003c0-.373-.263-10.913-.265-11.262-.063-10.192-1.032-11.272-8.688-12.112l-10.771-1.24c-1.632-.732-2.733-2.592-2.872-4.854-.139-2.247.704-4.209,2.2-5.112l.392-.24.457-.052c7.88-.93,17.823-2.686,27.995-4.944,5.359-1.279,10.336-2.899,13.971-4.084,3.621-1.181,5.13-1.659,6.099-1.659,2.01,0,4.369,1.066,5.107,3.446l.13.418-.047.439c-.406,3.76-.649,11.589-.649,20.931v10.122c37.733,3.662,59.001,20.37,59.001,47.106,0,25.415-22.653,42.973-58.999,46.991Z" fill="#fff"/>
        <path d="M173.745,208.266h10.869v2.079h-4.26v12.01h-2.382v-12.01h-4.226v-2.079ZM186.694,208.266h2.784l4.629,9.525,4.595-9.525h2.818v14.089h-2.18v-10.735l-4.462,9.258h-1.543l-4.461-9.258v10.735h-2.18v-14.089Z" fill="#fff"/>
      </g>
    </g>
  </g>
</svg>