<svg xmlns="http://www.w3.org/2000/svg" viewBox="0 0 891.47 434.79"><defs><style>.cls-1{font-size:92.91px;font-family:AgencyFB-Bold, Agency FB;font-weight:700;}.cls-1,.cls-3{fill:#717171;}.cls-2{fill:#ef3340;}.cls-4{fill:#b3b3b3;}.cls-5{fill:#f2f2f2;}</style></defs><title>preferente-positivo-color</title><g id="Capa_2" data-name="Capa 2"><g id="logo_utn"><text class="cls-1" transform="translate(0 416.19)">&lt; CLUB DE PROGRAMACIÓN &gt;</text><polygon class="cls-2" points="324.51 0.2 356.04 62 450.63 62 466.4 92.9 529.46 92.9 482.16 0.2 324.51 0.2"/><polygon class="cls-2" points="529.46 216.51 466.4 216.51 450.63 247.41 356.04 247.41 324.51 309.21 482.16 309.21 529.46 216.51"/><line class="cls-2" x1="340.28" y1="216.51" x2="348.16" y2="231.96"/><polygon class="cls-2" points="316.63 15.65 348.16 77.45 308.75 154.71 348.16 231.96 316.63 293.76 245.69 154.71 316.63 15.65"/><rect class="cls-3" x="543.39" y="0.4" width="61.74" height="308.72"/><polygon class="cls-3" points="620.57 0.4 620.57 62.14 713.19 62.14 728.62 93.01 713.19 123.88 620.57 123.88 620.57 185.63 744.06 185.63 790.37 93.01 744.06 0.4 620.57 0.4"/><polygon class="cls-4" points="0 154.71 36.42 81.86 109.27 81.86 145.69 154.71 109.27 227.56 36.42 227.56 0 154.71"/><polygon class="cls-3" points="120.76 72.85 157.18 0 230.03 0 266.45 72.85 230.03 145.7 157.18 145.7 120.76 72.85"/><polygon class="cls-2" points="122.7 236.66 159.13 163.81 231.97 163.81 268.4 236.66 231.97 309.51 159.13 309.51 122.7 236.66"/><path class="cls-5" d="M57,169.21h-.35l-17-12.1v-3.48L57,141.5v7.09l-10.07,6.77L57,162.15Z"/><path class="cls-5" d="M85,129.75l-18.1,45.41H60.68v-.41l18.1-45.44H85Z"/><path class="cls-5" d="M106.14,157.11l-17,12.1h-.41v-7.06l10.14-6.79-10.14-6.77V141.5h.41l17,12.13Z"/><path class="cls-5" d="M176.87,264.38H171q-7,0-7-7.26v-14l-5.77-5.65v-1.09l5.77-5.62V218.53q0-7.26,7-7.26h5.83v6.06q-.35,0-1.26-.06c-.6,0-1.07-.06-1.4-.06-2.27,0-3.4.82-3.4,2.46v10.38a6.83,6.83,0,0,1-.32,2.43,5.5,5.5,0,0,1-1.53,1.78l-3.19,2.64,3.19,2.7a5.53,5.53,0,0,1,1.55,1.84,6.31,6.31,0,0,1,.3,2.29v12.13c0,1.7,1.16,2.54,3.48,2.54.32,0,.77,0,1.35,0s1,0,1.23,0Z"/><path class="cls-5" d="M187.8,257.12h-6.59V250h6.59Z"/><path class="cls-5" d="M198.84,257.12h-6.59V250h6.59Z"/><path class="cls-5" d="M209.89,257.12H203.3V250h6.59Z"/><path class="cls-5" d="M232.83,237.43l-5.77,5.65v14q0,7.26-7,7.26h-5.8v-6.06c.21,0,.61,0,1.2,0s1,0,1.34,0c2.39,0,3.58-.84,3.58-2.54V243.73a7.22,7.22,0,0,1,.29-2.39,4.85,4.85,0,0,1,1.5-1.74l3.19-2.7-3.19-2.64a4.8,4.8,0,0,1-1.53-1.84,7.51,7.51,0,0,1-.26-2.37V219.67c0-1.62-1.16-2.43-3.49-2.43-.33,0-.8,0-1.4,0s-1,0-1.23,0v-6.06H220q7,0,7,7.26v12.19l5.77,5.62Z"/><path class="cls-5" d="M186.53,65.63l-17.05,12.1h-.41V70.67l10.14-6.8L169.07,57.1V50h.41l17.05,12.13Z"/><path class="cls-5" d="M212.14,95.69H188.38v-5.1h23.76Z"/><polyline class="cls-2" points="620.57 240.91 732.51 240.91 732.51 309.17 777.03 309.17 777.03 240.91 888.66 240.91 891.47 240.91 891.47 240.76 891.47 216.56 888.66 216.56 883.51 216.56 620.57 216.56"/><path class="cls-2" d="M681.09,248.81s.31,33.71,0,36.91a7.22,7.22,0,0,1-7.53,6.83c-5,0-6.58-7.63-6.58-7.63V248H620.89s-.32,51.36-.32,54.56,3.76,6.42,3.76,6.42,97.21.39,99.72,0,3.76-4,3.76-4V248.81Z"/><polygon class="cls-2" points="844.13 248.54 844.13 270.58 826.26 248.15 782.05 248.15 782.05 305.54 782.05 307.99 782.05 309.17 830.34 309.17 830.34 307.99 830.34 305.54 830.34 283.97 846.64 309.17 891.47 309.17 891.47 248.54 844.13 248.54"/></g></g></svg>